<?xml version="1.0" encoding="UTF-8" standalone="no"?>
<!DOCTYPE svg PUBLIC "-//W3C//DTD SVG 1.1//EN"
 "http://www.w3.org/Graphics/SVG/1.1/DTD/svg11.dtd">
<!-- Generated by graphviz version 14.1.1 (20251213.1925)
 -->
<!-- Title: InheritanceTree Pages: 1 -->
<svg width="410pt" height="501pt"
 viewBox="0.00 0.00 410.00 501.00" xmlns="http://www.w3.org/2000/svg" xmlns:xlink="http://www.w3.org/1999/xlink">
<g id="graph0" class="graph" transform="scale(1 1) rotate(0) translate(4 496.5)">
<title>InheritanceTree</title>
<polygon fill="white" stroke="none" points="-4,4 -4,-496.5 405.75,-496.5 405.75,4 -4,4"/>
<text xml:space="preserve" text-anchor="middle" x="200.88" y="-7.2" font-family="Times New Roman,serif" font-size="14.00">simple_chart &#45; Inheritance Hierarchy</text>
<!-- BAR_CHART_RENDERER -->
<g id="node1" class="node">
<title>BAR_CHART_RENDERER</title>
<path fill="none" stroke="black" d="M161.5,-60.5C161.5,-60.5 12,-60.5 12,-60.5 6,-60.5 0,-54.5 0,-48.5 0,-48.5 0,-36.5 0,-36.5 0,-30.5 6,-24.5 12,-24.5 12,-24.5 161.5,-24.5 161.5,-24.5 167.5,-24.5 173.5,-30.5 173.5,-36.5 173.5,-36.5 173.5,-48.5 173.5,-48.5 173.5,-54.5 167.5,-60.5 161.5,-60.5"/>
<text xml:space="preserve" text-anchor="middle" x="86.75" y="-37.45" font-family="Times New Roman,serif" font-size="14.00">BAR_CHART_RENDERER</text>
</g>
<!-- CSV_DATA_LOADER -->
<g id="node2" class="node">
<title>CSV_DATA_LOADER</title>
<path fill="none" stroke="black" d="M147.62,-132.5C147.62,-132.5 25.88,-132.5 25.88,-132.5 19.88,-132.5 13.88,-126.5 13.88,-120.5 13.88,-120.5 13.88,-108.5 13.88,-108.5 13.88,-102.5 19.88,-96.5 25.88,-96.5 25.88,-96.5 147.62,-96.5 147.62,-96.5 153.62,-96.5 159.62,-102.5 159.62,-108.5 159.62,-108.5 159.62,-120.5 159.62,-120.5 159.62,-126.5 153.62,-132.5 147.62,-132.5"/>
<text xml:space="preserve" text-anchor="middle" x="86.75" y="-109.45" font-family="Times New Roman,serif" font-size="14.00">CSV_DATA_LOADER</text>
</g>
<!-- SIMPLE_CHART -->
<g id="node3" class="node">
<title>SIMPLE_CHART</title>
<path fill="none" stroke="black" d="M133,-204.5C133,-204.5 40.5,-204.5 40.5,-204.5 34.5,-204.5 28.5,-198.5 28.5,-192.5 28.5,-192.5 28.5,-180.5 28.5,-180.5 28.5,-174.5 34.5,-168.5 40.5,-168.5 40.5,-168.5 133,-168.5 133,-168.5 139,-168.5 145,-174.5 145,-180.5 145,-180.5 145,-192.5 145,-192.5 145,-198.5 139,-204.5 133,-204.5"/>
<text xml:space="preserve" text-anchor="middle" x="86.75" y="-181.45" font-family="Times New Roman,serif" font-size="14.00">SIMPLE_CHART</text>
</g>
<!-- TABLE_RENDERER -->
<g id="node4" class="node">
<title>TABLE_RENDERER</title>
<path fill="none" stroke="black" d="M143.12,-276.5C143.12,-276.5 30.37,-276.5 30.37,-276.5 24.38,-276.5 18.38,-270.5 18.38,-264.5 18.38,-264.5 18.38,-252.5 18.38,-252.5 18.38,-246.5 24.38,-240.5 30.38,-240.5 30.38,-240.5 143.12,-240.5 143.12,-240.5 149.12,-240.5 155.12,-246.5 155.12,-252.5 155.12,-252.5 155.12,-264.5 155.12,-264.5 155.12,-270.5 149.12,-276.5 143.12,-276.5"/>
<text xml:space="preserve" text-anchor="middle" x="86.75" y="-253.45" font-family="Times New Roman,serif" font-size="14.00">TABLE_RENDERER</text>
</g>
<!-- LIB_TESTS -->
<g id="node5" class="node">
<title>LIB_TESTS</title>
<path fill="none" stroke="black" d="M116.88,-420.5C116.88,-420.5 56.62,-420.5 56.62,-420.5 50.62,-420.5 44.62,-414.5 44.62,-408.5 44.62,-408.5 44.62,-396.5 44.62,-396.5 44.62,-390.5 50.62,-384.5 56.62,-384.5 56.62,-384.5 116.88,-384.5 116.88,-384.5 122.88,-384.5 128.88,-390.5 128.88,-396.5 128.88,-396.5 128.88,-408.5 128.88,-408.5 128.88,-414.5 122.88,-420.5 116.88,-420.5"/>
<text xml:space="preserve" text-anchor="middle" x="86.75" y="-397.45" font-family="Times New Roman,serif" font-size="14.00">LIB_TESTS</text>
</g>
<!-- TEST_SET_BASE -->
<g id="node6" class="node">
<title>TEST_SET_BASE</title>
<path fill="none" stroke="black" d="M389.75,-384.5C389.75,-384.5 293.5,-384.5 293.5,-384.5 287.5,-384.5 281.5,-378.5 281.5,-372.5 281.5,-372.5 281.5,-360.5 281.5,-360.5 281.5,-354.5 287.5,-348.5 293.5,-348.5 293.5,-348.5 389.75,-348.5 389.75,-348.5 395.75,-348.5 401.75,-354.5 401.75,-360.5 401.75,-360.5 401.75,-372.5 401.75,-372.5 401.75,-378.5 395.75,-384.5 389.75,-384.5"/>
<text xml:space="preserve" text-anchor="middle" x="341.62" y="-361.45" font-family="Times New Roman,serif" font-size="14.00">TEST_SET_BASE</text>
</g>
<!-- LIB_TESTS&#45;&gt;TEST_SET_BASE -->
<g id="edge1" class="edge">
<title>LIB_TESTS&#45;&gt;TEST_SET_BASE</title>
<path fill="none" stroke="black" d="M86.75,-384.01C86.75,-377.84 86.75,-372.5 86.75,-372.5 86.75,-372.5 269.71,-372.5 269.71,-372.5"/>
<polygon fill="none" stroke="black" points="269.71,-376 279.71,-372.5 269.71,-369 269.71,-376"/>
</g>
<!-- TEST_APP -->
<g id="node7" class="node">
<title>TEST_APP</title>
<path fill="none" stroke="black" d="M114.62,-492.5C114.62,-492.5 58.88,-492.5 58.88,-492.5 52.88,-492.5 46.88,-486.5 46.88,-480.5 46.88,-480.5 46.88,-468.5 46.88,-468.5 46.88,-462.5 52.88,-456.5 58.88,-456.5 58.88,-456.5 114.62,-456.5 114.62,-456.5 120.62,-456.5 126.62,-462.5 126.62,-468.5 126.62,-468.5 126.62,-480.5 126.62,-480.5 126.62,-486.5 120.62,-492.5 114.62,-492.5"/>
<text xml:space="preserve" text-anchor="middle" x="86.75" y="-469.45" font-family="Times New Roman,serif" font-size="14.00">TEST_APP</text>
</g>
<!-- TEST_SIMPLE_CHART -->
<g id="node8" class="node">
<title>TEST_SIMPLE_CHART</title>
<path fill="none" stroke="black" d="M152.5,-348.5C152.5,-348.5 21,-348.5 21,-348.5 15,-348.5 9,-342.5 9,-336.5 9,-336.5 9,-324.5 9,-324.5 9,-318.5 15,-312.5 21,-312.5 21,-312.5 152.5,-312.5 152.5,-312.5 158.5,-312.5 164.5,-318.5 164.5,-324.5 164.5,-324.5 164.5,-336.5 164.5,-336.5 164.5,-342.5 158.5,-348.5 152.5,-348.5"/>
<text xml:space="preserve" text-anchor="middle" x="86.75" y="-325.45" font-family="Times New Roman,serif" font-size="14.00">TEST_SIMPLE_CHART</text>
</g>
<!-- TEST_SIMPLE_CHART&#45;&gt;TEST_SET_BASE -->
<g id="edge2" class="edge">
<title>TEST_SIMPLE_CHART&#45;&gt;TEST_SET_BASE</title>
<path fill="none" stroke="black" d="M146.75,-348.99C146.75,-355.16 146.75,-360.5 146.75,-360.5 146.75,-360.5 269.52,-360.5 269.52,-360.5"/>
<polygon fill="none" stroke="black" points="269.52,-364 279.52,-360.5 269.52,-357 269.52,-364"/>
</g>
</g>
</svg>
