<?xml version="1.0" encoding="UTF-8" standalone="no"?>
<!DOCTYPE svg PUBLIC "-//W3C//DTD SVG 1.1//EN"
 "http://www.w3.org/Graphics/SVG/1.1/DTD/svg11.dtd">
<!-- Generated by graphviz version 14.1.1 (20251213.1925)
 -->
<!-- Title: ContractCoverage Pages: 1 -->
<svg width="816pt" height="928pt"
 viewBox="48.00 48.00 768.00 880.00" xmlns="http://www.w3.org/2000/svg" xmlns:xlink="http://www.w3.org/1999/xlink">
<g id="graph0" class="graph" transform="scale(0.681173 0.681173) rotate(0) translate(74.47 1287.22)">
<title>ContractCoverage</title>
<polygon fill="white" stroke="none" points="-4,4 -4,-1216.75 1053,-1216.75 1053,4 -4,4"/>
<text xml:space="preserve" text-anchor="middle" x="524.5" y="-1199.25" font-family="Times New Roman,serif" font-size="10.00">simple_chart &#45; Contract Coverage</text>
<g id="clust1" class="cluster">
<title>cluster_BAR_CHART_RENDERER</title>
<polygon fill="white" stroke="black" points="340.38,-713 340.38,-1037.5 637.62,-1037.5 637.62,-713 340.38,-713"/>
<text xml:space="preserve" text-anchor="middle" x="489" y="-1020.2" font-family="Times New Roman,serif" font-size="14.00">BAR_CHART_RENDERER</text>
</g>
<g id="clust2" class="cluster">
<title>cluster_CSV_DATA_LOADER</title>
<polygon fill="white" stroke="black" points="713,-713 713,-1019.5 1049,-1019.5 1049,-713 713,-713"/>
<text xml:space="preserve" text-anchor="middle" x="881" y="-1002.2" font-family="Times New Roman,serif" font-size="14.00">CSV_DATA_LOADER</text>
</g>
<g id="clust3" class="cluster">
<title>cluster_SIMPLE_CHART</title>
<polygon fill="white" stroke="black" points="30.75,-899 30.75,-1193.5 275.25,-1193.5 275.25,-899 30.75,-899"/>
<text xml:space="preserve" text-anchor="middle" x="153" y="-1176.2" font-family="Times New Roman,serif" font-size="14.00">SIMPLE_CHART</text>
</g>
<g id="clust4" class="cluster">
<title>cluster_TABLE_RENDERER</title>
<polygon fill="white" stroke="black" points="774.38,-155 774.38,-485.5 1017.63,-485.5 1017.63,-155 774.38,-155"/>
<text xml:space="preserve" text-anchor="middle" x="896" y="-468.2" font-family="Times New Roman,serif" font-size="14.00">TABLE_RENDERER</text>
</g>
<g id="clust5" class="cluster">
<title>cluster_LIB_TESTS</title>
<polygon fill="white" stroke="black" points="216.75,-713 216.75,-773.5 285.25,-773.5 285.25,-713 216.75,-713"/>
<text xml:space="preserve" text-anchor="middle" x="251" y="-756.2" font-family="Times New Roman,serif" font-size="14.00">LIB_TESTS</text>
</g>
<g id="clust6" class="cluster">
<title>cluster_TEST_APP</title>
<polygon fill="white" stroke="black" points="0,0 0,-252.5 234,-252.5 234,0 0,0"/>
<text xml:space="preserve" text-anchor="middle" x="117" y="-235.2" font-family="Times New Roman,serif" font-size="14.00">TEST_APP</text>
</g>
<g id="clust7" class="cluster">
<title>cluster_TEST_SIMPLE_CHART</title>
<polygon fill="white" stroke="black" points="247.87,-310 247.87,-640.5 696.12,-640.5 696.12,-310 247.87,-310"/>
<text xml:space="preserve" text-anchor="middle" x="472" y="-623.2" font-family="Times New Roman,serif" font-size="14.00">TEST_SIMPLE_CHART</text>
</g>
<g id="clust8" class="cluster">
<title>cluster_legend</title>
<polygon fill="lightyellow" stroke="black" points="464.62,-62.12 464.62,-258.38 685.38,-258.38 685.38,-62.12 464.62,-62.12"/>
<text xml:space="preserve" text-anchor="middle" x="575" y="-244.88" font-family="Times New Roman,serif" font-size="10.00">Legend</text>
</g>
<!-- BAR_CHART_RENDERER_make -->
<g id="node1" class="node">
<title>BAR_CHART_RENDERER_make</title>
<polygon fill="khaki" stroke="black" points="551,-995 497,-995 497,-959 551,-959 551,-995"/>
<text xml:space="preserve" text-anchor="middle" x="524" y="-973.12" font-family="Times New Roman,serif" font-size="10.00">make</text>
</g>
<!-- BAR_CHART_RENDERER_output -->
<g id="node2" class="node">
<title>BAR_CHART_RENDERER_output</title>
<polygon fill="lightgray" stroke="black" points="545,-749 491,-749 491,-713 545,-713 545,-749"/>
<text xml:space="preserve" text-anchor="middle" x="518" y="-727.12" font-family="Times New Roman,serif" font-size="10.00">output</text>
</g>
<!-- BAR_CHART_RENDERER_as_string -->
<g id="node3" class="node">
<title>BAR_CHART_RENDERER_as_string</title>
<polygon fill="khaki" stroke="black" points="623,-749 569,-749 569,-713 623,-713 623,-749"/>
<text xml:space="preserve" text-anchor="middle" x="596" y="-727.12" font-family="Times New Roman,serif" font-size="10.00">as_string</text>
</g>
<!-- BAR_CHART_RENDERER_bar_width -->
<g id="node4" class="node">
<title>BAR_CHART_RENDERER_bar_width</title>
<polygon fill="lightgray" stroke="black" points="411,-875 353,-875 353,-839 411,-839 411,-875"/>
<text xml:space="preserve" text-anchor="middle" x="382" y="-853.12" font-family="Times New Roman,serif" font-size="10.00">bar_width</text>
</g>
<!-- BAR_CHART_RENDERER_bar_character -->
<g id="node5" class="node">
<title>BAR_CHART_RENDERER_bar_character</title>
<polygon fill="lightgray" stroke="black" points="615.38,-809 544.62,-809 544.62,-773 615.38,-773 615.38,-809"/>
<text xml:space="preserve" text-anchor="middle" x="580" y="-787.13" font-family="Times New Roman,serif" font-size="10.00">bar_character</text>
</g>
<!-- BAR_CHART_RENDERER_set_bar_width -->
<g id="node6" class="node">
<title>BAR_CHART_RENDERER_set_bar_width</title>
<polygon fill="palegreen" stroke="black" points="493.25,-935 418.75,-935 418.75,-899 493.25,-899 493.25,-935"/>
<text xml:space="preserve" text-anchor="middle" x="456" y="-913.12" font-family="Times New Roman,serif" font-size="10.00">set_bar_width</text>
</g>
<!-- BAR_CHART_RENDERER_set_bar_character -->
<g id="node7" class="node">
<title>BAR_CHART_RENDERER_set_bar_character</title>
<polygon fill="khaki" stroke="black" points="601.62,-911 514.38,-911 514.38,-875 601.62,-875 601.62,-911"/>
<text xml:space="preserve" text-anchor="middle" x="558" y="-889.12" font-family="Times New Roman,serif" font-size="10.00">set_bar_character</text>
</g>
<!-- BAR_CHART_RENDERER_is_rendered -->
<g id="node8" class="node">
<title>BAR_CHART_RENDERER_is_rendered</title>
<polygon fill="lightcoral" stroke="black" points="637.62,-971 574.38,-971 574.38,-935 637.62,-935 637.62,-971"/>
<text xml:space="preserve" text-anchor="middle" x="606" y="-949.12" font-family="Times New Roman,serif" font-size="10.00">is_rendered</text>
</g>
<!-- BAR_CHART_RENDERER_render -->
<g id="node9" class="node">
<title>BAR_CHART_RENDERER_render</title>
<polygon fill="palegreen" stroke="black" points="473,-995 419,-995 419,-959 473,-959 473,-995"/>
<text xml:space="preserve" text-anchor="middle" x="446" y="-973.12" font-family="Times New Roman,serif" font-size="10.00">render</text>
</g>
<!-- BAR_CHART_RENDERER_Default_bar_width -->
<g id="node10" class="node">
<title>BAR_CHART_RENDERER_Default_bar_width</title>
<polygon fill="lightgray" stroke="black" points="525,-851 431,-851 431,-815 525,-815 525,-851"/>
<text xml:space="preserve" text-anchor="middle" x="478" y="-829.12" font-family="Times New Roman,serif" font-size="10.00">Default_bar_width</text>
</g>
<!-- BAR_CHART_RENDERER_padded_label -->
<g id="node11" class="node">
<title>BAR_CHART_RENDERER_padded_label</title>
<polygon fill="palegreen" stroke="black" points="465.75,-791 394.25,-791 394.25,-755 465.75,-755 465.75,-791"/>
<text xml:space="preserve" text-anchor="middle" x="430" y="-769.13" font-family="Times New Roman,serif" font-size="10.00">padded_label</text>
</g>
<!-- BAR_CHART_RENDERER_bar_string -->
<g id="node12" class="node">
<title>BAR_CHART_RENDERER_bar_string</title>
<polygon fill="palegreen" stroke="black" points="397.62,-1013 340.38,-1013 340.38,-977 397.62,-977 397.62,-1013"/>
<text xml:space="preserve" text-anchor="middle" x="369" y="-991.12" font-family="Times New Roman,serif" font-size="10.00">bar_string</text>
</g>
<!-- CSV_DATA_LOADER_make -->
<g id="node13" class="node">
<title>CSV_DATA_LOADER_make</title>
<polygon fill="khaki" stroke="black" points="767,-935 713,-935 713,-899 767,-899 767,-935"/>
<text xml:space="preserve" text-anchor="middle" x="740" y="-913.12" font-family="Times New Roman,serif" font-size="10.00">make</text>
</g>
<!-- CSV_DATA_LOADER_row_count -->
<g id="node14" class="node">
<title>CSV_DATA_LOADER_row_count</title>
<polygon fill="palegreen" stroke="black" points="929.12,-749 868.88,-749 868.88,-713 929.12,-713 929.12,-749"/>
<text xml:space="preserve" text-anchor="middle" x="899" y="-727.12" font-family="Times New Roman,serif" font-size="10.00">row_count</text>
</g>
<!-- CSV_DATA_LOADER_column_count -->
<g id="node15" class="node">
<title>CSV_DATA_LOADER_column_count</title>
<polygon fill="palegreen" stroke="black" points="1021.62,-971 946.37,-971 946.37,-935 1021.62,-935 1021.62,-971"/>
<text xml:space="preserve" text-anchor="middle" x="984" y="-949.12" font-family="Times New Roman,serif" font-size="10.00">column_count</text>
</g>
<!-- CSV_DATA_LOADER_headers -->
<g id="node16" class="node">
<title>CSV_DATA_LOADER_headers</title>
<polygon fill="palegreen" stroke="black" points="1007,-749 953,-749 953,-713 1007,-713 1007,-749"/>
<text xml:space="preserve" text-anchor="middle" x="980" y="-727.12" font-family="Times New Roman,serif" font-size="10.00">headers</text>
</g>
<!-- CSV_DATA_LOADER_all_rows -->
<g id="node17" class="node">
<title>CSV_DATA_LOADER_all_rows</title>
<polygon fill="palegreen" stroke="black" points="773,-875 719,-875 719,-839 773,-839 773,-875"/>
<text xml:space="preserve" text-anchor="middle" x="746" y="-853.12" font-family="Times New Roman,serif" font-size="10.00">all_rows</text>
</g>
<!-- CSV_DATA_LOADER_column_values -->
<g id="node18" class="node">
<title>CSV_DATA_LOADER_column_values</title>
<polygon fill="palegreen" stroke="black" points="995.12,-809 916.87,-809 916.87,-773 995.12,-773 995.12,-809"/>
<text xml:space="preserve" text-anchor="middle" x="956" y="-787.13" font-family="Times New Roman,serif" font-size="10.00">column_values</text>
</g>
<!-- CSV_DATA_LOADER_column_as_numbers -->
<g id="node19" class="node">
<title>CSV_DATA_LOADER_column_as_numbers</title>
<polygon fill="palegreen" stroke="black" points="897,-851 797,-851 797,-815 897,-815 897,-851"/>
<text xml:space="preserve" text-anchor="middle" x="847" y="-829.12" font-family="Times New Roman,serif" font-size="10.00">column_as_numbers</text>
</g>
<!-- CSV_DATA_LOADER_has_data -->
<g id="node20" class="node">
<title>CSV_DATA_LOADER_has_data</title>
<polygon fill="lightcoral" stroke="black" points="1049,-869 995,-869 995,-833 1049,-833 1049,-869"/>
<text xml:space="preserve" text-anchor="middle" x="1022" y="-847.12" font-family="Times New Roman,serif" font-size="10.00">has_data</text>
</g>
<!-- CSV_DATA_LOADER_load_from_file -->
<g id="node21" class="node">
<title>CSV_DATA_LOADER_load_from_file</title>
<polygon fill="khaki" stroke="black" points="867.37,-935 790.62,-935 790.62,-899 867.37,-899 867.37,-935"/>
<text xml:space="preserve" text-anchor="middle" x="829" y="-913.12" font-family="Times New Roman,serif" font-size="10.00">load_from_file</text>
</g>
<!-- CSV_DATA_LOADER_load_from_string -->
<g id="node22" class="node">
<title>CSV_DATA_LOADER_load_from_string</title>
<polygon fill="palegreen" stroke="black" points="973.25,-911 886.75,-911 886.75,-875 973.25,-875 973.25,-911"/>
<text xml:space="preserve" text-anchor="middle" x="930" y="-889.12" font-family="Times New Roman,serif" font-size="10.00">load_from_string</text>
</g>
<!-- CSV_DATA_LOADER_csv_parser -->
<g id="node23" class="node">
<title>CSV_DATA_LOADER_csv_parser</title>
<polygon fill="lightgray" stroke="black" points="831.37,-995 772.62,-995 772.62,-959 831.37,-959 831.37,-995"/>
<text xml:space="preserve" text-anchor="middle" x="802" y="-973.12" font-family="Times New Roman,serif" font-size="10.00">csv_parser</text>
</g>
<!-- CSV_DATA_LOADER_cached_headers -->
<g id="node24" class="node">
<title>CSV_DATA_LOADER_cached_headers</title>
<polygon fill="lightgray" stroke="black" points="847.25,-791 766.75,-791 766.75,-755 847.25,-755 847.25,-791"/>
<text xml:space="preserve" text-anchor="middle" x="807" y="-769.13" font-family="Times New Roman,serif" font-size="10.00">cached_headers</text>
</g>
<!-- CSV_DATA_LOADER_cache_headers -->
<g id="node25" class="node">
<title>CSV_DATA_LOADER_cache_headers</title>
<polygon fill="khaki" stroke="black" points="925.62,-995 850.37,-995 850.37,-959 925.62,-959 925.62,-995"/>
<text xml:space="preserve" text-anchor="middle" x="888" y="-973.12" font-family="Times New Roman,serif" font-size="10.00">cache_headers</text>
</g>
<!-- SIMPLE_CHART_make -->
<g id="node26" class="node">
<title>SIMPLE_CHART_make</title>
<polygon fill="khaki" stroke="black" points="253.25,-935 199.25,-935 199.25,-899 253.25,-899 253.25,-935"/>
<text xml:space="preserve" text-anchor="middle" x="226.25" y="-913.12" font-family="Times New Roman,serif" font-size="10.00">make</text>
</g>
<!-- SIMPLE_CHART_data_loader -->
<g id="node27" class="node">
<title>SIMPLE_CHART_data_loader</title>
<polygon fill="lightgray" stroke="black" points="275.25,-1151 211.25,-1151 211.25,-1115 275.25,-1115 275.25,-1151"/>
<text xml:space="preserve" text-anchor="middle" x="243.25" y="-1129.12" font-family="Times New Roman,serif" font-size="10.00">data_loader</text>
</g>
<!-- SIMPLE_CHART_bar_renderer -->
<g id="node28" class="node">
<title>SIMPLE_CHART_bar_renderer</title>
<polygon fill="lightgray" stroke="black" points="127.75,-1109 60.75,-1109 60.75,-1073 127.75,-1073 127.75,-1109"/>
<text xml:space="preserve" text-anchor="middle" x="94.25" y="-1087.12" font-family="Times New Roman,serif" font-size="10.00">bar_renderer</text>
</g>
<!-- SIMPLE_CHART_table_renderer -->
<g id="node29" class="node">
<title>SIMPLE_CHART_table_renderer</title>
<polygon fill="lightgray" stroke="black" points="249.5,-995 175,-995 175,-959 249.5,-959 249.5,-995"/>
<text xml:space="preserve" text-anchor="middle" x="212.25" y="-973.12" font-family="Times New Roman,serif" font-size="10.00">table_renderer</text>
</g>
<!-- SIMPLE_CHART_has_data -->
<g id="node30" class="node">
<title>SIMPLE_CHART_has_data</title>
<polygon fill="lightcoral" stroke="black" points="109.25,-1169 55.25,-1169 55.25,-1133 109.25,-1133 109.25,-1169"/>
<text xml:space="preserve" text-anchor="middle" x="82.25" y="-1147.12" font-family="Times New Roman,serif" font-size="10.00">has_data</text>
</g>
<!-- SIMPLE_CHART_last_error -->
<g id="node31" class="node">
<title>SIMPLE_CHART_last_error</title>
<polygon fill="lightgray" stroke="black" points="175.38,-935 121.12,-935 121.12,-899 175.38,-899 175.38,-935"/>
<text xml:space="preserve" text-anchor="middle" x="148.25" y="-913.12" font-family="Times New Roman,serif" font-size="10.00">last_error</text>
</g>
<!-- SIMPLE_CHART_load_csv -->
<g id="node32" class="node">
<title>SIMPLE_CHART_load_csv</title>
<polygon fill="palegreen" stroke="black" points="187.25,-1169 133.25,-1169 133.25,-1133 187.25,-1133 187.25,-1169"/>
<text xml:space="preserve" text-anchor="middle" x="160.25" y="-1147.12" font-family="Times New Roman,serif" font-size="10.00">load_csv</text>
</g>
<!-- SIMPLE_CHART_load_csv_string -->
<g id="node33" class="node">
<title>SIMPLE_CHART_load_csv_string</title>
<polygon fill="palegreen" stroke="black" points="231.88,-1091 150.62,-1091 150.62,-1055 231.88,-1055 231.88,-1091"/>
<text xml:space="preserve" text-anchor="middle" x="191.25" y="-1069.12" font-family="Times New Roman,serif" font-size="10.00">load_csv_string</text>
</g>
<!-- SIMPLE_CHART_render_bar_chart -->
<g id="node34" class="node">
<title>SIMPLE_CHART_render_bar_chart</title>
<polygon fill="palegreen" stroke="black" points="151.75,-1031 66.75,-1031 66.75,-995 151.75,-995 151.75,-1031"/>
<text xml:space="preserve" text-anchor="middle" x="109.25" y="-1009.12" font-family="Times New Roman,serif" font-size="10.00">render_bar_chart</text>
</g>
<!-- SIMPLE_CHART_render_table -->
<g id="node35" class="node">
<title>SIMPLE_CHART_render_table</title>
<polygon fill="palegreen" stroke="black" points="97.75,-971 30.75,-971 30.75,-935 97.75,-935 97.75,-971"/>
<text xml:space="preserve" text-anchor="middle" x="64.25" y="-949.12" font-family="Times New Roman,serif" font-size="10.00">render_table</text>
</g>
<!-- TABLE_RENDERER_make -->
<g id="node36" class="node">
<title>TABLE_RENDERER_make</title>
<polygon fill="khaki" stroke="black" points="991,-197 937,-197 937,-161 991,-161 991,-197"/>
<text xml:space="preserve" text-anchor="middle" x="964" y="-175.12" font-family="Times New Roman,serif" font-size="10.00">make</text>
</g>
<!-- TABLE_RENDERER_output -->
<g id="node37" class="node">
<title>TABLE_RENDERER_output</title>
<polygon fill="lightgray" stroke="black" points="847,-461 793,-461 793,-425 847,-425 847,-461"/>
<text xml:space="preserve" text-anchor="middle" x="820" y="-439.12" font-family="Times New Roman,serif" font-size="10.00">output</text>
</g>
<!-- TABLE_RENDERER_as_string -->
<g id="node38" class="node">
<title>TABLE_RENDERER_as_string</title>
<polygon fill="khaki" stroke="black" points="913,-251 859,-251 859,-215 913,-215 913,-251"/>
<text xml:space="preserve" text-anchor="middle" x="886" y="-229.12" font-family="Times New Roman,serif" font-size="10.00">as_string</text>
</g>
<!-- TABLE_RENDERER_is_rendered -->
<g id="node39" class="node">
<title>TABLE_RENDERER_is_rendered</title>
<polygon fill="lightcoral" stroke="black" points="1017.62,-431 954.38,-431 954.38,-395 1017.62,-395 1017.62,-431"/>
<text xml:space="preserve" text-anchor="middle" x="986" y="-409.12" font-family="Times New Roman,serif" font-size="10.00">is_rendered</text>
</g>
<!-- TABLE_RENDERER_render -->
<g id="node40" class="node">
<title>TABLE_RENDERER_render</title>
<polygon fill="palegreen" stroke="black" points="913,-191 859,-191 859,-155 913,-155 913,-191"/>
<text xml:space="preserve" text-anchor="middle" x="886" y="-169.13" font-family="Times New Roman,serif" font-size="10.00">render</text>
</g>
<!-- TABLE_RENDERER_column_widths -->
<g id="node41" class="node">
<title>TABLE_RENDERER_column_widths</title>
<polygon fill="lightgray" stroke="black" points="871.88,-401 792.13,-401 792.13,-365 871.88,-365 871.88,-401"/>
<text xml:space="preserve" text-anchor="middle" x="832" y="-379.12" font-family="Times New Roman,serif" font-size="10.00">column_widths</text>
</g>
<!-- TABLE_RENDERER_calculate_column_widths -->
<g id="node42" class="node">
<title>TABLE_RENDERER_calculate_column_widths</title>
<polygon fill="palegreen" stroke="black" points="913.88,-311 792.13,-311 792.13,-275 913.88,-275 913.88,-311"/>
<text xml:space="preserve" text-anchor="middle" x="853" y="-289.12" font-family="Times New Roman,serif" font-size="10.00">calculate_column_widths</text>
</g>
<!-- TABLE_RENDERER_render_separator -->
<g id="node43" class="node">
<title>TABLE_RENDERER_render_separator</title>
<polygon fill="lightcoral" stroke="black" points="977.75,-371 894.25,-371 894.25,-335 977.75,-335 977.75,-371"/>
<text xml:space="preserve" text-anchor="middle" x="936" y="-349.12" font-family="Times New Roman,serif" font-size="10.00">render_separator</text>
</g>
<!-- TABLE_RENDERER_render_row -->
<g id="node44" class="node">
<title>TABLE_RENDERER_render_row</title>
<polygon fill="khaki" stroke="black" points="933.25,-461 870.75,-461 870.75,-425 933.25,-425 933.25,-461"/>
<text xml:space="preserve" text-anchor="middle" x="902" y="-439.12" font-family="Times New Roman,serif" font-size="10.00">render_row</text>
</g>
<!-- TABLE_RENDERER_padded_cell -->
<g id="node45" class="node">
<title>TABLE_RENDERER_padded_cell</title>
<polygon fill="palegreen" stroke="black" points="1003.13,-257 936.88,-257 936.88,-221 1003.13,-221 1003.13,-257"/>
<text xml:space="preserve" text-anchor="middle" x="970" y="-235.12" font-family="Times New Roman,serif" font-size="10.00">padded_cell</text>
</g>
<!-- TABLE_RENDERER_repeat_char -->
<g id="node46" class="node">
<title>TABLE_RENDERER_repeat_char</title>
<polygon fill="palegreen" stroke="black" points="837.62,-251 774.38,-251 774.38,-215 837.62,-215 837.62,-251"/>
<text xml:space="preserve" text-anchor="middle" x="806" y="-229.12" font-family="Times New Roman,serif" font-size="10.00">repeat_char</text>
</g>
<!-- LIB_TESTS_test_creation -->
<g id="node47" class="node">
<title>LIB_TESTS_test_creation</title>
<polygon fill="lightcoral" stroke="black" points="285.25,-749 216.75,-749 216.75,-713 285.25,-713 285.25,-749"/>
<text xml:space="preserve" text-anchor="middle" x="251" y="-727.12" font-family="Times New Roman,serif" font-size="10.00">test_creation</text>
</g>
<!-- TEST_APP_make -->
<g id="node48" class="node">
<title>TEST_APP_make</title>
<polygon fill="lightcoral" stroke="black" points="156,-228 102,-228 102,-192 156,-192 156,-228"/>
<text xml:space="preserve" text-anchor="middle" x="129" y="-206.12" font-family="Times New Roman,serif" font-size="10.00">make</text>
</g>
<!-- TEST_APP_run_lib_tests -->
<g id="node49" class="node">
<title>TEST_APP_run_lib_tests</title>
<polygon fill="lightcoral" stroke="black" points="188.63,-156 119.38,-156 119.38,-120 188.63,-120 188.63,-156"/>
<text xml:space="preserve" text-anchor="middle" x="154" y="-134.12" font-family="Times New Roman,serif" font-size="10.00">run_lib_tests</text>
</g>
<!-- TEST_APP_run_simple_chart_tests -->
<g id="node50" class="node">
<title>TEST_APP_run_simple_chart_tests</title>
<polygon fill="lightcoral" stroke="black" points="134.25,-96 23.75,-96 23.75,-60 134.25,-60 134.25,-96"/>
<text xml:space="preserve" text-anchor="middle" x="79" y="-74.12" font-family="Times New Roman,serif" font-size="10.00">run_simple_chart_tests</text>
</g>
<!-- TEST_APP_lib_tests -->
<g id="node51" class="node">
<title>TEST_APP_lib_tests</title>
<polygon fill="lightgray" stroke="black" points="210,-48 156,-48 156,-12 210,-12 210,-48"/>
<text xml:space="preserve" text-anchor="middle" x="183" y="-26.12" font-family="Times New Roman,serif" font-size="10.00">lib_tests</text>
</g>
<!-- TEST_APP_chart_tests -->
<g id="node52" class="node">
<title>TEST_APP_chart_tests</title>
<polygon fill="lightgray" stroke="black" points="94.75,-168 35.25,-168 35.25,-132 94.75,-132 94.75,-168"/>
<text xml:space="preserve" text-anchor="middle" x="65" y="-146.12" font-family="Times New Roman,serif" font-size="10.00">chart_tests</text>
</g>
<!-- TEST_APP_passed -->
<g id="node53" class="node">
<title>TEST_APP_passed</title>
<polygon fill="lightgray" stroke="black" points="54,-36 0,-36 0,0 54,0 54,-36"/>
<text xml:space="preserve" text-anchor="middle" x="27" y="-14.12" font-family="Times New Roman,serif" font-size="10.00">passed</text>
</g>
<!-- TEST_APP_failed -->
<g id="node54" class="node">
<title>TEST_APP_failed</title>
<polygon fill="lightgray" stroke="black" points="132,-36 78,-36 78,0 132,0 132,-36"/>
<text xml:space="preserve" text-anchor="middle" x="105" y="-14.12" font-family="Times New Roman,serif" font-size="10.00">failed</text>
</g>
<!-- TEST_APP_run_test -->
<g id="node55" class="node">
<title>TEST_APP_run_test</title>
<polygon fill="lightcoral" stroke="black" points="234,-216 180,-216 180,-180 234,-180 234,-216"/>
<text xml:space="preserve" text-anchor="middle" x="207" y="-194.12" font-family="Times New Roman,serif" font-size="10.00">run_test</text>
</g>
<!-- TEST_SIMPLE_CHART_test_make_creates_all_components -->
<g id="node56" class="node">
<title>TEST_SIMPLE_CHART_test_make_creates_all_components</title>
<polygon fill="lightcoral" stroke="black" points="561.62,-346 400.87,-346 400.87,-310 561.62,-310 561.62,-346"/>
<text xml:space="preserve" text-anchor="middle" x="481.25" y="-324.12" font-family="Times New Roman,serif" font-size="10.00">test_make_creates_all_components</text>
</g>
<!-- TEST_SIMPLE_CHART_test_load_csv_string_valid_data -->
<g id="node57" class="node">
<title>TEST_SIMPLE_CHART_test_load_csv_string_valid_data</title>
<polygon fill="lightcoral" stroke="black" points="415,-508 265.5,-508 265.5,-472 415,-472 415,-508"/>
<text xml:space="preserve" text-anchor="middle" x="340.25" y="-486.12" font-family="Times New Roman,serif" font-size="10.00">test_load_csv_string_valid_data</text>
</g>
<!-- TEST_SIMPLE_CHART_test_load_csv_string_single_row -->
<g id="node58" class="node">
<title>TEST_SIMPLE_CHART_test_load_csv_string_single_row</title>
<polygon fill="lightcoral" stroke="black" points="696.12,-616 544.37,-616 544.37,-580 696.12,-580 696.12,-616"/>
<text xml:space="preserve" text-anchor="middle" x="620.25" y="-594.12" font-family="Times New Roman,serif" font-size="10.00">test_load_csv_string_single_row</text>
</g>
<!-- TEST_SIMPLE_CHART_test_load_csv_string_many_columns -->
<g id="node59" class="node">
<title>TEST_SIMPLE_CHART_test_load_csv_string_many_columns</title>
<polygon fill="lightcoral" stroke="black" points="569.38,-400 401.13,-400 401.13,-364 569.38,-364 569.38,-400"/>
<text xml:space="preserve" text-anchor="middle" x="485.25" y="-378.12" font-family="Times New Roman,serif" font-size="10.00">test_load_csv_string_many_columns</text>
</g>
<!-- TEST_SIMPLE_CHART_test_load_csv_string_whitespace_values -->
<g id="node60" class="node">
<title>TEST_SIMPLE_CHART_test_load_csv_string_whitespace_values</title>
<polygon fill="lightcoral" stroke="black" points="484.88,-454 301.62,-454 301.62,-418 484.88,-418 484.88,-454"/>
<text xml:space="preserve" text-anchor="middle" x="393.25" y="-432.12" font-family="Times New Roman,serif" font-size="10.00">test_load_csv_string_whitespace_values</text>
</g>
<!-- TEST_SIMPLE_CHART_test_load_csv_string_empty_cells -->
<g id="node61" class="node">
<title>TEST_SIMPLE_CHART_test_load_csv_string_empty_cells</title>
<polygon fill="lightcoral" stroke="black" points="664,-454 508.5,-454 508.5,-418 664,-418 664,-454"/>
<text xml:space="preserve" text-anchor="middle" x="586.25" y="-432.12" font-family="Times New Roman,serif" font-size="10.00">test_load_csv_string_empty_cells</text>
</g>
<!-- TEST_SIMPLE_CHART_test_render_bar_chart_valid -->
<g id="node62" class="node">
<title>TEST_SIMPLE_CHART_test_render_bar_chart_valid</title>
<polygon fill="lightcoral" stroke="black" points="378.62,-400 247.88,-400 247.88,-364 378.62,-364 378.62,-400"/>
<text xml:space="preserve" text-anchor="middle" x="313.25" y="-378.12" font-family="Times New Roman,serif" font-size="10.00">test_render_bar_chart_valid</text>
</g>
<!-- TEST_SIMPLE_CHART_test_render_bar_chart_single_row -->
<g id="node63" class="node">
<title>TEST_SIMPLE_CHART_test_render_bar_chart_single_row</title>
<polygon fill="lightcoral" stroke="black" points="646,-562 490.5,-562 490.5,-526 646,-526 646,-562"/>
<text xml:space="preserve" text-anchor="middle" x="568.25" y="-540.12" font-family="Times New Roman,serif" font-size="10.00">test_render_bar_chart_single_row</text>
</g>
<!-- TEST_SIMPLE_CHART_test_render_bar_chart_zero_values -->
<g id="node64" class="node">
<title>TEST_SIMPLE_CHART_test_render_bar_chart_zero_values</title>
<polygon fill="lightcoral" stroke="black" points="469.5,-562 311,-562 311,-526 469.5,-526 469.5,-562"/>
<text xml:space="preserve" text-anchor="middle" x="390.25" y="-540.12" font-family="Times New Roman,serif" font-size="10.00">test_render_bar_chart_zero_values</text>
</g>
<!-- TEST_SIMPLE_CHART_test_render_bar_chart_negative_values -->
<g id="node65" class="node">
<title>TEST_SIMPLE_CHART_test_render_bar_chart_negative_values</title>
<polygon fill="lightcoral" stroke="black" points="613.5,-508 437,-508 437,-472 613.5,-472 613.5,-508"/>
<text xml:space="preserve" text-anchor="middle" x="525.25" y="-486.12" font-family="Times New Roman,serif" font-size="10.00">test_render_bar_chart_negative_values</text>
</g>
<!-- TEST_SIMPLE_CHART_test_render_table_valid -->
<g id="node66" class="node">
<title>TEST_SIMPLE_CHART_test_render_table_valid</title>
<polygon fill="lightcoral" stroke="black" points="378.62,-346 265.88,-346 265.88,-310 378.62,-310 378.62,-346"/>
<text xml:space="preserve" text-anchor="middle" x="322.25" y="-324.12" font-family="Times New Roman,serif" font-size="10.00">test_render_table_valid</text>
</g>
<!-- TEST_SIMPLE_CHART_test_render_table_wide_columns -->
<g id="node67" class="node">
<title>TEST_SIMPLE_CHART_test_render_table_wide_columns</title>
<polygon fill="lightcoral" stroke="black" points="525.12,-616 373.38,-616 373.38,-580 525.12,-580 525.12,-616"/>
<text xml:space="preserve" text-anchor="middle" x="449.25" y="-594.12" font-family="Times New Roman,serif" font-size="10.00">test_render_table_wide_columns</text>
</g>
<!-- legend_full -->
<g id="node68" class="node">
<title>legend_full</title>
<polygon fill="palegreen" stroke="black" points="674.88,-167.12 560.62,-167.12 560.62,-126.12 674.88,-126.12 674.88,-167.12"/>
<text xml:space="preserve" text-anchor="middle" x="617.75" y="-149.82" font-family="Times New Roman,serif" font-size="14.00">Full Contract</text>
<text xml:space="preserve" text-anchor="middle" x="617.75" y="-133.32" font-family="Times New Roman,serif" font-size="14.00">(require + ensure)</text>
</g>
<!-- legend_partial -->
<g id="node69" class="node">
<title>legend_partial</title>
<polygon fill="khaki" stroke="black" points="685.38,-103.12 568.12,-103.12 568.12,-62.12 685.38,-62.12 685.38,-103.12"/>
<text xml:space="preserve" text-anchor="middle" x="626.75" y="-85.82" font-family="Times New Roman,serif" font-size="14.00">Partial Contract</text>
<text xml:space="preserve" text-anchor="middle" x="626.75" y="-69.32" font-family="Times New Roman,serif" font-size="14.00">(require or ensure)</text>
</g>
<!-- legend_none -->
<g id="node70" class="node">
<title>legend_none</title>
<polygon fill="lightcoral" stroke="black" points="651.12,-225.62 568.38,-225.62 568.38,-189.62 651.12,-189.62 651.12,-225.62"/>
<text xml:space="preserve" text-anchor="middle" x="609.75" y="-202.57" font-family="Times New Roman,serif" font-size="14.00">No Contract</text>
</g>
<!-- legend_attr -->
<g id="node71" class="node">
<title>legend_attr</title>
<polygon fill="lightgray" stroke="black" points="545.12,-239.12 480.38,-239.12 480.38,-198.12 545.12,-198.12 545.12,-239.12"/>
<text xml:space="preserve" text-anchor="middle" x="512.75" y="-221.82" font-family="Times New Roman,serif" font-size="14.00">Attribute</text>
<text xml:space="preserve" text-anchor="middle" x="512.75" y="-205.32" font-family="Times New Roman,serif" font-size="14.00">(n/a)</text>
</g>
<!-- legend_stats -->
<g id="node72" class="node">
<title>legend_stats</title>
<polygon fill="white" stroke="black" points="530.88,-177.12 464.62,-177.12 464.62,-70.12 536.88,-70.12 536.88,-171.12 530.88,-177.12"/>
<polyline fill="none" stroke="black" points="530.88,-177.12 530.88,-171.12"/>
<polyline fill="none" stroke="black" points="536.88,-171.12 530.88,-171.12"/>
<text xml:space="preserve" text-anchor="middle" x="500.75" y="-159.82" font-family="Times New Roman,serif" font-size="14.00">Statistics</text>
<text xml:space="preserve" text-anchor="middle" x="500.75" y="-143.32" font-family="Times New Roman,serif" font-size="14.00">Full: 19</text>
<text xml:space="preserve" text-anchor="middle" x="500.75" y="-126.83" font-family="Times New Roman,serif" font-size="14.00">Partial: 10</text>
<text xml:space="preserve" text-anchor="middle" x="500.75" y="-110.33" font-family="Times New Roman,serif" font-size="14.00">None: 22</text>
<text xml:space="preserve" text-anchor="middle" x="500.75" y="-93.83" font-family="Times New Roman,serif" font-size="14.00">Attr: 16</text>
<text xml:space="preserve" text-anchor="middle" x="500.75" y="-77.33" font-family="Times New Roman,serif" font-size="14.00">Total: 67</text>
</g>
</g>
</svg>
