<?xml version="1.0" encoding="UTF-8" standalone="no"?>
<!DOCTYPE svg PUBLIC "-//W3C//DTD SVG 1.1//EN"
 "http://www.w3.org/Graphics/SVG/1.1/DTD/svg11.dtd">
<!-- Generated by graphviz version 14.1.1 (20251213.1925)
 -->
<!-- Title: Dependencies Pages: 1 -->
<svg width="334pt" height="429pt"
 viewBox="0.00 0.00 334.00 429.00" xmlns="http://www.w3.org/2000/svg" xmlns:xlink="http://www.w3.org/1999/xlink">
<g id="graph0" class="graph" transform="scale(1 1) rotate(0) translate(4 424.5)">
<title>Dependencies</title>
<polygon fill="white" stroke="none" points="-4,4 -4,-424.5 330,-424.5 330,4 -4,4"/>
<text xml:space="preserve" text-anchor="middle" x="163" y="-7.2" font-family="Times New Roman,serif" font-size="14.00">simple_chart &#45; Dependencies</text>
<!-- simple_chart -->
<g id="node1" class="node">
<title>simple_chart</title>
<polygon fill="lightblue" stroke="black" points="86.5,-240.5 0,-240.5 0,-204.5 86.5,-204.5 86.5,-240.5"/>
<text xml:space="preserve" text-anchor="middle" x="43.25" y="-217.45" font-family="Times New Roman,serif" font-size="14.00">simple_chart</text>
</g>
<!-- simple_csv -->
<g id="node2" class="node">
<title>simple_csv</title>
<polygon fill="lightblue" stroke="black" points="317,-420.5 239.5,-420.5 239.5,-384.5 317,-384.5 317,-420.5"/>
<text xml:space="preserve" text-anchor="middle" x="278.25" y="-397.45" font-family="Times New Roman,serif" font-size="14.00">simple_csv</text>
</g>
<!-- simple_chart&#45;&gt;simple_csv -->
<g id="edge1" class="edge">
<title>simple_chart&#45;&gt;simple_csv</title>
<path fill="none" stroke="black" stroke-dasharray="5,2" d="M29,-240.75C29,-286.51 29,-402.5 29,-402.5 29,-402.5 227.52,-402.5 227.52,-402.5"/>
<polygon fill="black" stroke="black" points="227.52,-406 237.52,-402.5 227.52,-399 227.52,-406"/>
</g>
<!-- simple_file -->
<g id="node3" class="node">
<title>simple_file</title>
<polygon fill="lightblue" stroke="black" points="317,-348.5 239.5,-348.5 239.5,-312.5 317,-312.5 317,-348.5"/>
<text xml:space="preserve" text-anchor="middle" x="278.25" y="-325.45" font-family="Times New Roman,serif" font-size="14.00">simple_file</text>
</g>
<!-- simple_chart&#45;&gt;simple_file -->
<g id="edge2" class="edge">
<title>simple_chart&#45;&gt;simple_file</title>
<path fill="none" stroke="black" stroke-dasharray="5,2" d="M58,-240.82C58,-271.63 58,-330.5 58,-330.5 58,-330.5 227.61,-330.5 227.61,-330.5"/>
<polygon fill="black" stroke="black" points="227.61,-334 237.61,-330.5 227.61,-327 227.61,-334"/>
</g>
<!-- simple_testing -->
<g id="node4" class="node">
<title>simple_testing</title>
<polygon fill="lightblue" stroke="black" points="326,-276.5 230.5,-276.5 230.5,-240.5 326,-240.5 326,-276.5"/>
<text xml:space="preserve" text-anchor="middle" x="278.25" y="-253.45" font-family="Times New Roman,serif" font-size="14.00">simple_testing</text>
</g>
<!-- simple_chart&#45;&gt;simple_testing -->
<g id="edge3" class="edge">
<title>simple_chart&#45;&gt;simple_testing</title>
<path fill="none" stroke="black" stroke-dasharray="5,2" d="M86.65,-228.5C144.86,-228.5 241,-228.5 241,-228.5 241,-228.5 241,-229.65 241,-229.65"/>
<polygon fill="black" stroke="black" points="237.5,-228.5 241,-238.5 244.5,-228.5 237.5,-228.5"/>
</g>
<!-- base -->
<g id="node5" class="node">
<title>base</title>
<polygon fill="lightgray" stroke="black" points="305.25,-204.5 251.25,-204.5 251.25,-168.5 305.25,-168.5 305.25,-204.5"/>
<text xml:space="preserve" text-anchor="middle" x="278.25" y="-181.45" font-family="Times New Roman,serif" font-size="14.00">base</text>
</g>
<!-- simple_chart&#45;&gt;base -->
<g id="edge4" class="edge">
<title>simple_chart&#45;&gt;base</title>
<path fill="none" stroke="black" stroke-dasharray="5,2" d="M86.85,-216.5C154.74,-216.5 278,-216.5 278,-216.5 278,-216.5 278,-215.35 278,-215.35"/>
<polygon fill="black" stroke="black" points="281.5,-216.5 278,-206.5 274.5,-216.5 281.5,-216.5"/>
</g>
<!-- time -->
<g id="node6" class="node">
<title>time</title>
<polygon fill="lightgray" stroke="black" points="305.25,-132.5 251.25,-132.5 251.25,-96.5 305.25,-96.5 305.25,-132.5"/>
<text xml:space="preserve" text-anchor="middle" x="278.25" y="-109.45" font-family="Times New Roman,serif" font-size="14.00">time</text>
</g>
<!-- simple_chart&#45;&gt;time -->
<g id="edge5" class="edge">
<title>simple_chart&#45;&gt;time</title>
<path fill="none" stroke="black" stroke-dasharray="5,2" d="M58,-204.18C58,-173.37 58,-114.5 58,-114.5 58,-114.5 239.29,-114.5 239.29,-114.5"/>
<polygon fill="black" stroke="black" points="239.29,-118 249.29,-114.5 239.29,-111 239.29,-118"/>
</g>
<!-- testing -->
<g id="node7" class="node">
<title>testing</title>
<polygon fill="lightgray" stroke="black" points="305.25,-60.5 251.25,-60.5 251.25,-24.5 305.25,-24.5 305.25,-60.5"/>
<text xml:space="preserve" text-anchor="middle" x="278.25" y="-37.45" font-family="Times New Roman,serif" font-size="14.00">testing</text>
</g>
<!-- simple_chart&#45;&gt;testing -->
<g id="edge6" class="edge">
<title>simple_chart&#45;&gt;testing</title>
<path fill="none" stroke="black" stroke-dasharray="5,2" d="M29,-204.25C29,-158.49 29,-42.5 29,-42.5 29,-42.5 239.59,-42.5 239.59,-42.5"/>
<polygon fill="black" stroke="black" points="239.59,-46 249.59,-42.5 239.59,-39 239.59,-46"/>
</g>
</g>
</svg>
